Caberetshow: Jochem Myjer - De Rust Zelve
TVRIP van 18-12-2010

General
Format                           : AVI
Format/Info                      : Audio Video Interleave
File size                        : 618 MiB
Duration                         : 1h 32mn
Overall bit rate                 : 935 Kbps
Writing application              : Lavf52.73.0

Video
Format                           : MPEG-4 Visual
Codec ID                         : DIV3
Codec ID/Hint                    : DivX 3 Low
Duration                         : 1h 32mn
Bit rate                         : 800 Kbps
Width                            : 720 pixels
Height                           : 576 pixels
Display aspect ratio             : 5:4
Frame rate                       : 25.000 fps
Standard                         : PAL
Color space                      : YUV
Chroma subsampling               : 4:2:0
Bit depth                        : 8 bits
Bits/(Pixel*Frame)               : 0.077
Stream size                      : 530 MiB (86%)

Audio
Format                           : MPEG Audio
Format version                   : Version 1
Format profile                   : Layer 3
Mode                             : Joint stereo
Mode extension                   : MS Stereo
Codec ID                         : 55
Codec ID/Hint                    : MP3
Duration                         : 1h 32mn
Bit rate mode                    : Variable
Bit rate                         : 112 Kbps
Channel(s)                       : 2 channels
Sampling rate                    : 44.1 KHz
Stream size                      : 80.5 MiB (13%)
Alignment                        : Aligned on interleaves
Interleave, duration             : 26 ms (0.65 video frame)
Interleave, preload duration     : 7 ms